<svg xmlns="http://www.w3.org/2000/svg" viewBox="0 0 300.47 477.48"><title>Flame</title>
    <g id="Wood1" data-name="Layer 1">
        <path d="M221,375c2.92-.75,3.34-4.6,2.78-11.19,0-.5-2-5.49,2.14-3.16,5,5.42,1.25,6.38,4.69,9.52,2,1.78,7.42,3.25,14,13.6,2.38,3.74,6.27,6.47,8.93,9.58,4.71,5.49,8.06,10.44,10.14,11.89,4.09,2.86,8.49,4.27,10,5.61,6.65,6.1,4.23-6.92,1.88-10s3.32-6.67,6.18-7.65c2.34.3.66,2.37,6.54,10.63s6.89,14.88,12.5,21.29,29.34,31.05,33,36,14,12.55,16.79,15.29,2.32,7.21,3,18.11-7,10.78-11.79,6A44.14,44.14,0,0,0,330.38,492c-2.13-1.16-9.61-10.61-16.26-18.67-3.91-4.73-8.7-8.17-10.78-10s-5.11-8.92-16.51-17.93C281,440.82,274,434,264.27,430.22c-4.32-1.67-12.87-.1-15.66-1.92-2-1.33.22-3.5.52-5.88.58-1.35-1.39-1.4,3.12-1.35,6.46.74,4.93-4.64,2.94-6.24-3.13-2.51-7.08-11.59-14.33-18.75C230.12,385.48,216.31,376.18,221,375Z"
              transform="translate(-139.71 -26.09)" style="fill:#8e4c24"/>
        <path d="M396.93,360.51c.6,3.54,4.87,4.6,12.29,4.92.56,0,6.31-1.55,3.35,3-6.48,5.1-7.24.52-11,4.1-2.15,2-4.25,8.22-16.38,14.4-4.38,2.24-7.76,6.39-11.46,9.06-6.53,4.7-12.35,7.9-14.15,10.13-3.54,4.38-5.47,9.33-7.1,10.85-7.38,6.9,7.39,6,11.05,3.69s7.18,4.87,8,8.38c-.52,2.7-2.69.42-12.43,6.09s-17.21,5.88-24.85,11.52-37.18,29.82-43,33.43S276,494.6,272.7,497.49s-8.26,1.64-20.51.79-11.46-9.86-5.74-14.72a47.43,47.43,0,0,0,10.48-12.05c1.48-2.32,12.67-9.7,22.24-16.32,5.62-3.88,9.87-9,12.07-11.17s10.4-4.66,21.43-16.7c5.6-6.11,13.86-13.42,18.85-24.22,2.23-4.82,1.19-15.09,3.47-18.08,1.65-2.19,3.88.77,6.52,1.47,1.47.89,1.68-1.42,1.25,3.86-1.36,7.47,4.78,6.47,6.74,4.37,3.07-3.3,13.55-6.59,22.16-14C384.42,369.66,396,354.83,396.93,360.51Z"
              transform="translate(-139.71 -26.09)" style="fill:#9f5b26"/>
    </g>
    <g id="flame1" class="flame" data-name="Flame 6" >
        <path id="323cf41c-23da-4cc3-b460-bdf29218a7c4" data-name="Flame 6"
              d="M277.14,405.48c-13.75-27.71-14-88.85-6.34-117.62,6.34,14.38,9.94,60.5,16.92,34.27s11.43-107,11.43-107S304,272.83,314,257c0,0,7.83-21,6.35-11.85s-.9,64.1.19,91.39,25-19.88,26-13.54,3.18,69.4-20.73,99.44S277.14,405.48,277.14,405.48Z"
              transform="translate(-139.71 -26.09)" style="fill:#ed2024"/>
    </g>
    <g id="flame2" class="flame" data-name="Flame 5" >
        <path id="0b8db0d9-457e-407d-8ff3-54f7b4aaeee7" data-name="Flame 5"
              d="M322.37,393.1c-64.12-10.19-37.26-162.13-43.7-193,9.49,11.57,10.6,76.43,22.43,101.84C322.89,348.76,351,364.59,322.37,393.1Z"
              transform="translate(-139.71 -26.09)" style="fill:#fdb81a"/>
    </g>
    <g id="flame3" class="flame" data-name="Flame 4" >
        <path id="1d7c4282-72c7-495f-9e26-50a47dc50873" data-name="Flame 4"
              d="M307,436.67c73.33-9.3,39-169.77,45.68-202.11-10.61,12-10.4,80.19-23.38,106.66C305.39,390,273.55,406,307,436.67Z"
              transform="translate(-139.71 -26.09)" style="fill:#fdb81a"/>
    </g>
    <g id="flame4" class="flame" data-name="Flame 3" >
        <path id="abc30d1f-d1fe-46d9-a059-2c91e13e586d" data-name="Flame 3"
              d="M313.83,439.68c-22.11,3.8-62.59-21.34-60.32-59.18s15.08-42.68,7.4-84.23.57-21.9-.57-54.06c11.14,26.18,12.52,51.5,25.61,62S302.74,292,306.44,286c2.84,6.26-2.57,21.91,7.39,29S336.31,295.14,340,277.5c10.24,15.93,11.95,26.46,8,50.07s8.53,23.9,10.24,34.72S366.76,430.57,313.83,439.68Z"
              transform="translate(-139.71 -26.09)" style="fill:#ef4723"/>
    </g>
    <g id="flame5" class="flame" data-name="Flame 2" >
        <path id="5edfb88b-103b-404b-b44f-18aa63a9b8c1" data-name="Flame 2"
              d="M310.54,429.16c82-20.81-6.69-101.74-8.85-121-8.62,8.86-14.15,40.28-21.09,57.62C267.8,397.77,281.74,435.44,310.54,429.16Z"
              transform="translate(-139.71 -26.09)" style="fill:#fdb81a"/>
    </g>
    <g id="flame6" class="flame" data-name="Flame 1" >
        <path id="cf9a3b5b-ac39-47f1-bda7-8d20e05fcf13" data-name="Flame 1"
              d="M309,417.94c10.25-4.2,9.63-15.08,7.34-28.12-3-16.92-9.81-36.77-10.19-43.19-2.46,4.93-.24,28.66-2.2,38.63C300.39,403.61,295.18,410.73,309,417.94Z"
              transform="translate(-139.71 -26.09)" style="fill:#ef4623"/>
    </g>
    <g id="Wood2" data-name="Layer 3">
        <path d="M139.82,445.76c45.79,1.73,70.37,4.76,76.83-1s19.26-12,19.5-16.57,19.51-2.57,21.16-6.59,2.5-25.49-12.74-36.52-20.23-2.26-15.24-11c5.48,2,15.39,4.26,20,10.39s14,9.47,12,12.16,2.25,7.33,3.38,11.88-.19,15.45,9.42,14.82,18.67,3.78,29.83,8.3,14.5,3.55,7.07-4.88.45-.52,2.65-3.15,6.51,10.61,11.74,14.11,43.13,25.55,51,31.44-.48,7-.88,13.49-5.32,2.56-21.94-9.3-56.72-39.72-71-37.67-5-4.57-15.48-2.64-9.43-7.27-22.3.28c-20.52,9.27-21.66,16.05-31.27,17.57-7.85,1.23-45.83,1.59-59.33-2.16C151.28,447.83,138.39,447.07,139.82,445.76Z"
              transform="translate(-139.71 -26.09)" style="fill:#ad5827"/>
        <path d="M360.39,408.12c-24.58,12.37-30.6,23.81-43.18,30.37s-47.8,23.1-52.52,22.22-36.33,15.59-2.28-21.6c10.91-5.52,14.42-14.18,25.89-13.77s-1.29-8.28-9.29-4.29-25.69,17.47-21,11.28.29-33.08,14-33.76-8.34-5.74-10.14-.25-16.51,69.43-32.61,62.83-18.79-11.85-30.71-4.68,4.76-18.14-5.73-13.14,4,12.67-15.92,24.25c6.42,8,7.14,5.4,7.14,5.4a16.71,16.71,0,0,1,16.37-5.3c4.78-2.37,5.92-7.14,14.75-3.19C232.1,471.77,239.49,478,250,474s27.61-5,35.37-10.16,17-9.69,27.5-14.59,17.79-10.41,21.26-13.94c.86-.89,9.5-9.89,18.09-12,11.6-2.79,32.85-1.27,52.38-3.43,5.47.72,8.84,3.4,12.36,5.35,8,4.44,12.69,10.88,15.65,23,3.41,13.92-1.62,7.94,5.59,9.66.34-4-5.2-26.22-10.28-29.87-2.37-1.71-6-4.09-9.72-6.34-4.57-4.74-11.81-6.75-13.36-6.6-11.34,1.12-49,3.71-45.59,1.24s16.26-7.89,17.51-11.4S388.61,393.92,360.39,408.12Z"
              transform="translate(-139.71 -26.09)" style="fill:#be6429"/>
    </g>
</svg>