<svg xmlns="http://www.w3.org/2000/svg" viewBox="0 0 299.63 478.48">
    <title>Building</title>
    <g id="ac97ce20-c304-4771-a612-b49cd0f1ea1d" data-name="Widows">
        <g id="ad3e528e-1dea-4b13-9ff4-82aeb83d9ebc" data-name="Layer 5 copy">
            <rect x="20.96" y="21.74" width="66.67" height="60" style="fill:none;stroke:#231f20;stroke-miterlimit:10"/>
            <rect x="214.51" y="21.74" width="66.67" height="60" style="fill:none;stroke:#231f20;stroke-miterlimit:10"/>
            <rect x="117.73" y="21.74" width="66.67" height="60" style="fill:none;stroke:#231f20;stroke-miterlimit:10"/>
            <rect x="20.96" y="106.11" width="66.67" height="60" style="fill:none;stroke:#231f20;stroke-miterlimit:10"/>
            <rect x="214.51" y="106.11" width="66.67" height="60"
                  style="fill:none;stroke:#231f20;stroke-miterlimit:10"/>
            <rect x="117.73" y="106.11" width="66.67" height="60"
                  style="fill:none;stroke:#231f20;stroke-miterlimit:10"/>
            <rect x="20.96" y="194.86" width="66.67" height="60" style="fill:none;stroke:#231f20;stroke-miterlimit:10"/>
            <rect x="214.51" y="194.86" width="66.67" height="60"
                  style="fill:none;stroke:#231f20;stroke-miterlimit:10"/>
            <rect x="117.73" y="194.86" width="66.67" height="60"
                  style="fill:none;stroke:#231f20;stroke-miterlimit:10"/>
            <rect x="20.71" y="283.03" width="66.67" height="60" style="fill:none;stroke:#231f20;stroke-miterlimit:10"/>
            <rect x="214.26" y="283.03" width="66.67" height="60"
                  style="fill:none;stroke:#231f20;stroke-miterlimit:10"/>
            <rect x="117.48" y="283.03" width="66.67" height="60"
                  style="fill:none;stroke:#231f20;stroke-miterlimit:10"/>
            <rect x="20.71" y="371.2" width="66.67" height="60" style="fill:none;stroke:#231f20;stroke-miterlimit:10"/>
            <rect x="214.26" y="371.2" width="66.67" height="60" style="fill:none;stroke:#231f20;stroke-miterlimit:10"/>
            <rect x="117.48" y="371.2" width="66.67" height="60" style="fill:none;stroke:#231f20;stroke-miterlimit:10"/>
        </g>
        <g id="db7e0dc7-2ff9-4cea-a00f-152d8371eaea" data-name="Layer 6">
            <rect x="19.96" y="20.74" width="66.67" height="60"
                  style="fill:#fff;stroke:#231f20;stroke-miterlimit:10;stroke-width:0.5px"/>
            <rect x="213.51" y="20.74" width="66.67" height="60"
                  style="fill:#fff;stroke:#231f20;stroke-miterlimit:10;stroke-width:0.5px"/>
            <rect x="116.73" y="20.74" width="66.67" height="60"
                  style="fill:#fff;stroke:#231f20;stroke-miterlimit:10;stroke-width:0.5px"/>
            <rect x="19.96" y="105.11" width="66.67" height="60"
                  style="fill:#fff;stroke:#231f20;stroke-miterlimit:10;stroke-width:0.5px"/>
            <rect x="213.51" y="105.11" width="66.67" height="60"
                  style="fill:#fff;stroke:#231f20;stroke-miterlimit:10;stroke-width:0.5px"/>
            <rect x="116.73" y="105.11" width="66.67" height="60"
                  style="fill:#fff;stroke:#231f20;stroke-miterlimit:10;stroke-width:0.5px"/>
            <rect x="19.96" y="193.86" width="66.67" height="60"
                  style="fill:#fff;stroke:#231f20;stroke-miterlimit:10;stroke-width:0.5px"/>
            <rect x="213.51" y="193.86" width="66.67" height="60"
                  style="fill:#fff;stroke:#231f20;stroke-miterlimit:10;stroke-width:0.5px"/>
            <rect x="116.73" y="193.86" width="66.67" height="60"
                  style="fill:#fff;stroke:#231f20;stroke-miterlimit:10;stroke-width:0.5px"/>
            <rect x="19.71" y="282.03" width="66.67" height="60"
                  style="fill:#fff;stroke:#231f20;stroke-miterlimit:10;stroke-width:0.5px"/>
            <rect x="213.26" y="282.03" width="66.67" height="60"
                  style="fill:#fff;stroke:#231f20;stroke-miterlimit:10;stroke-width:0.5px"/>
            <rect x="116.48" y="282.03" width="66.67" height="60"
                  style="fill:#fff;stroke:#231f20;stroke-miterlimit:10;stroke-width:0.5px"/>
            <rect x="19.71" y="370.2" width="66.67" height="60"
                  style="fill:#fff;stroke:#231f20;stroke-miterlimit:10;stroke-width:0.5px"/>
            <rect x="213.26" y="370.2" width="66.67" height="60"
                  style="fill:#fff;stroke:#231f20;stroke-miterlimit:10;stroke-width:0.5px"/>
            <rect x="116.48" y="370.2" width="66.67" height="60"
                  style="fill:#fff;stroke:#231f20;stroke-miterlimit:10;stroke-width:0.5px"/>
        </g>
        <g id="a109f546-7b72-4356-878d-d3f2944f18c5" data-name="glans" style="opacity:0.64">
            <path d="M255.78,106.33c3.89-12.16,15.66-8.56,26.78-21.66,10.26-12.09,18.06-21.91,25.27-28.34a64.39,64.39,0,0,1,14.61-10h0v60Z"
                  transform="translate(-139.04 -25.59)" style="fill:#eaf7fd"/>
            <path d="M352.56,106.33c3.89-12.16,23.27-4.84,26.78-21.66,3.24-15.54,14-24.5,16.19-27.67s6.69-10.67,6.69-10.67h17v60Z"
                  transform="translate(-139.04 -25.59)" style="fill:#eaf7fd"/>
            <path d="M159,106.33s16-13.7,23.5-24.83,34.83-35.21,43.17-35.17v60H159"
                  transform="translate(-139.04 -25.59)" style="fill:#def1f5"/>
            <path d="M255.65,191c3.9-12.16,15.66-8.56,26.79-21.66,10.26-12.1,18.05-21.91,25.27-28.34a64.39,64.39,0,0,1,14.61-10h0v60Z"
                  transform="translate(-139.04 -25.59)" style="fill:#eaf7fd"/>
            <path d="M352.43,191c3.89-12.16,23.28-4.84,26.78-21.66,3.24-15.55,14-24.5,16.2-27.67S402.1,131,402.1,131h17v60Z"
                  transform="translate(-139.04 -25.59)" style="fill:#eaf7fd"/>
            <path d="M158.88,191s16-13.71,23.5-24.83,34.83-35.21,43.16-35.17v60H158.88"
                  transform="translate(-139.04 -25.59)" style="fill:#def1f5"/>
            <path d="M255.59,279.45c3.89-12.16,15.66-8.56,26.78-21.66,10.27-12.09,18.06-21.91,25.28-28.34a64.39,64.39,0,0,1,14.61-10h0v60Z"
                  transform="translate(-139.04 -25.59)" style="fill:#eaf7fd"/>
            <path d="M352.37,279.45c3.89-12.16,23.27-4.84,26.78-21.66,3.24-15.54,14-24.5,16.2-27.67S402,219.45,402,219.45h17v60Z"
                  transform="translate(-139.04 -25.59)" style="fill:#eaf7fd"/>
            <path d="M158.81,279.45s16-13.7,23.5-24.83,34.84-35.21,43.17-35.17v60H158.81"
                  transform="translate(-139.04 -25.59)" style="fill:#def1f5"/>
            <path d="M255.47,367.82c3.89-12.16,15.66-8.56,26.78-21.66,10.26-12.1,18.05-21.91,25.27-28.34a64.39,64.39,0,0,1,14.61-10h0v60Z"
                  transform="translate(-139.04 -25.59)" style="fill:#eaf7fd"/>
            <path d="M352.24,367.82c3.9-12.16,23.28-4.84,26.79-21.66,3.24-15.55,14-24.5,16.19-27.67s6.69-10.67,6.69-10.67h17v60Z"
                  transform="translate(-139.04 -25.59)" style="fill:#eaf7fd"/>
            <path d="M158.69,367.82s16-13.71,23.5-24.83,34.83-35.21,43.17-35.17v60H158.69"
                  transform="translate(-139.04 -25.59)" style="fill:#def1f5"/>
            <path d="M255.53,455.79c3.89-12.17,15.66-8.56,26.78-21.67,10.26-12.09,18.06-21.91,25.27-28.33a64,64,0,0,1,14.61-10h0v60Z"
                  transform="translate(-139.04 -25.59)" style="fill:#eaf7fd"/>
            <path d="M352.31,455.79c3.89-12.17,23.27-4.84,26.78-21.67,3.24-15.54,14-24.5,16.19-27.66S402,395.79,402,395.79h17v60Z"
                  transform="translate(-139.04 -25.59)" style="fill:#eaf7fd"/>
            <path d="M158.75,455.79s16-13.71,23.5-24.83,34.83-35.21,43.17-35.17v60H158.75"
                  transform="translate(-139.04 -25.59)" style="fill:#def1f5"/>
        </g>
        <g id="1e2ee736-7e2b-47bf-a647-22aedebcc779" data-name="Layer 5">
            <rect x="19.96" y="20.74" width="66.67" height="60" style="fill:none;stroke:#231f20;stroke-miterlimit:10"/>
            <rect x="213.51" y="20.74" width="66.67" height="60" style="fill:none;stroke:#231f20;stroke-miterlimit:10"/>
            <rect x="116.73" y="20.74" width="66.67" height="60" style="fill:none;stroke:#231f20;stroke-miterlimit:10"/>
            <rect x="19.96" y="105.11" width="66.67" height="60" style="fill:none;stroke:#231f20;stroke-miterlimit:10"/>
            <rect x="213.51" y="105.11" width="66.67" height="60"
                  style="fill:none;stroke:#231f20;stroke-miterlimit:10"/>
            <rect x="116.73" y="105.11" width="66.67" height="60"
                  style="fill:none;stroke:#231f20;stroke-miterlimit:10"/>
            <rect x="19.96" y="193.86" width="66.67" height="60" style="fill:none;stroke:#231f20;stroke-miterlimit:10"/>
            <rect x="213.51" y="193.86" width="66.67" height="60"
                  style="fill:none;stroke:#231f20;stroke-miterlimit:10"/>
            <rect x="116.73" y="193.86" width="66.67" height="60"
                  style="fill:none;stroke:#231f20;stroke-miterlimit:10"/>
            <rect x="19.71" y="282.03" width="66.67" height="60" style="fill:none;stroke:#231f20;stroke-miterlimit:10"/>
            <rect x="213.26" y="282.03" width="66.67" height="60"
                  style="fill:none;stroke:#231f20;stroke-miterlimit:10"/>
            <rect x="116.48" y="282.03" width="66.67" height="60"
                  style="fill:none;stroke:#231f20;stroke-miterlimit:10"/>
            <rect x="19.71" y="370.2" width="66.67" height="60" style="fill:none;stroke:#231f20;stroke-miterlimit:10"/>
            <rect x="213.26" y="370.2" width="66.67" height="60" style="fill:none;stroke:#231f20;stroke-miterlimit:10"/>
            <rect x="116.48" y="370.2" width="66.67" height="60" style="fill:none;stroke:#231f20;stroke-miterlimit:10"/>
        </g>
    </g>
</svg>