<svg xmlns="http://www.w3.org/2000/svg" viewBox="0 0 298.05 477.12">
    <title>Stones</title>
    <g id="f900baf8-f645-41df-93e4-06d87bc87939" data-name="Back copy">
        <path d="M156.33,242.33c-11.53-16.94-25.5-23.5-9.66-34.66s31.37-26.51,54-38,62.44-32.7,97-22.1c11.72,4.21,17.55,12.07,21.25,18.86A50.15,50.15,0,0,1,324.74,188c1.7,33.7,33.06,89.9,4.93,93.66C298.5,285.83,225.67,344.17,156.33,242.33Z"
              transform="translate(-139.56 -25.95)" style="fill:#c2c1c0"/>
        <path d="M371.38,144.69c23.38-28.25,65.8-28,65.8,16.64s-13,120.17-40.85,119-54.22-29.72-54.69-46.27S358.25,160.54,371.38,144.69Z"
              transform="translate(-139.56 -25.95)" style="fill:#c2c1c0"/>
        <path d="M259.32,301.57c-27.69,2.38-116.65,51.26-67.65,80.1S201.17,420.5,233,417c3.95-.43,22.88-5.08,43.67-5.18,32.43-.16,69.38,2.12,61-17.49C317.5,347.17,314.65,296.81,259.32,301.57Z"
              transform="translate(-139.56 -25.95)" style="fill:#c2c1c0"/>
        <path d="M336.63,279.29c-27.74,22.32-29.48,40.93-19.14,61.07s97.34,46.81,90.51-1.69-8-58.27-25.43-61.05S345.44,272.21,336.63,279.29Z"
              transform="translate(-139.56 -25.95)" style="fill:#c2c1c0"/>
        <path d="M243.62,416.77C204.22,430.46,139.76,370,139.71,448S157.5,493.81,194,502.57c64.85,0,243.18,9.93,243.18-59.24s-99.18,8.5-114.85-2S288.41,401.2,243.62,416.77Z"
              transform="translate(-139.56 -25.95)" style="fill:#c2c1c0"/>
        <path d="M338.87,398c5.83,21,17,32.39,45.06,22.94s7.67-54.25-10.3-55.18S330.24,366.83,338.87,398Z"
              transform="translate(-139.56 -25.95)" style="fill:#c2c1c0"/>
        <path d="M139.76,65.75c.92,5.55,14.34,18.69,36.47,34.32C214,126.71,275.11,156.76,329,141c85.5-25,100.61-2.5,108.18-56.25S351.63,24.81,301.25,26.09,137.64,35.25,139.76,65.75"
              transform="translate(-139.56 -25.95)" style="fill:#c2c1c0"/>
        <path d="M156.33,242.33c-11.53-16.94-25.5-23.5-9.66-34.66s31.37-26.51,54-38,62.44-32.7,97-22.1c11.72,4.21,17.55,12.07,21.25,18.86A50.15,50.15,0,0,1,324.74,188c1.7,33.7,33.06,89.9,4.93,93.66C298.5,285.83,225.67,344.17,156.33,242.33Z"
              transform="translate(-139.56 -25.95)" style="fill:#c2c1c0"/>
    </g>
</svg>