<svg xmlns="http://www.w3.org/2000/svg" viewBox="0 0 298.05 477.12">
    <title>Stones</title>
    <g id="f900baf8-f645-41df-93e4-06d87bc87939" data-name="Back copy">
        <path d="M156.33,242.33c-11.53-16.94-25.5-23.5-9.66-34.66s31.37-26.51,54-38,62.44-32.7,97-22.1c11.72,4.21,17.55,12.07,21.25,18.86A50.15,50.15,0,0,1,324.74,188c1.7,33.7,33.06,89.9,4.93,93.66C298.5,285.83,225.67,344.17,156.33,242.33Z"
              transform="translate(-139.56 -25.95)" style="fill:#c2c1c0"/>
        <path d="M371.38,144.69c23.38-28.25,65.8-28,65.8,16.64s-13,120.17-40.85,119-54.22-29.72-54.69-46.27S358.25,160.54,371.38,144.69Z"
              transform="translate(-139.56 -25.95)" style="fill:#c2c1c0"/>
        <path d="M259.32,301.57c-27.69,2.38-116.65,51.26-67.65,80.1S201.17,420.5,233,417c3.95-.43,22.88-5.08,43.67-5.18,32.43-.16,69.38,2.12,61-17.49C317.5,347.17,314.65,296.81,259.32,301.57Z"
              transform="translate(-139.56 -25.95)" style="fill:#c2c1c0"/>
        <path d="M336.63,279.29c-27.74,22.32-29.48,40.93-19.14,61.07s97.34,46.81,90.51-1.69-8-58.27-25.43-61.05S345.44,272.21,336.63,279.29Z"
              transform="translate(-139.56 -25.95)" style="fill:#c2c1c0"/>
        <path d="M243.62,416.77C204.22,430.46,139.76,370,139.71,448S157.5,493.81,194,502.57c64.85,0,243.18,9.93,243.18-59.24s-99.18,8.5-114.85-2S288.41,401.2,243.62,416.77Z"
              transform="translate(-139.56 -25.95)" style="fill:#c2c1c0"/>
        <path d="M338.87,398c5.83,21,17,32.39,45.06,22.94s7.67-54.25-10.3-55.18S330.24,366.83,338.87,398Z"
              transform="translate(-139.56 -25.95)" style="fill:#c2c1c0"/>
        <path d="M139.76,65.75c.92,5.55,14.34,18.69,36.47,34.32C214,126.71,275.11,156.76,329,141c85.5-25,100.61-2.5,108.18-56.25S351.63,24.81,301.25,26.09,137.64,35.25,139.76,65.75"
              transform="translate(-139.56 -25.95)" style="fill:#c2c1c0"/>
        <path d="M156.33,242.33c-11.53-16.94-25.5-23.5-9.66-34.66s31.37-26.51,54-38,62.44-32.7,97-22.1c11.72,4.21,17.55,12.07,21.25,18.86A50.15,50.15,0,0,1,324.74,188c1.7,33.7,33.06,89.9,4.93,93.66C298.5,285.83,225.67,344.17,156.33,242.33Z"
              transform="translate(-139.56 -25.95)" style="fill:#c2c1c0"/>
    </g>
    <g id="f211ac4f-c49e-42c8-92b4-032d51d165d2" data-name="Layer 3">
        <path d="M163.53,243.54c-10.91-16-24.11-22.22-9.14-32.78s29.67-25.06,51.06-35.93,59.05-30.92,91.7-20.89c11.08,4,16.59,11.41,20.09,17.83a47.49,47.49,0,0,1,5.53,20.41c1.61,31.86,31.26,85,4.66,88.55C298,284.67,229.09,339.83,163.53,243.54Z"
              transform="translate(-139.56 -25.95)" style="fill:#dcdbdb"/>
        <path d="M372.87,147.21C395,120.5,435.09,120.72,435.09,163s-12.3,113.62-38.62,112.52-51.27-28.1-51.72-43.76S360.46,162.2,372.87,147.21Z"
              transform="translate(-139.56 -25.95)" style="fill:#dcdbdb"/>
        <path d="M259.92,303.55c-26.19,2.26-110.31,48.47-64,75.74s9,36.72,39.09,33.41c3.73-.41,21.63-4.8,41.29-4.9,30.66-.15,65.6,2,57.67-16.53C314.93,346.67,312.23,299.05,259.92,303.55Z"
              transform="translate(-139.56 -25.95)" style="fill:#dcdbdb"/>
        <path d="M338,281.48c-26.24,21.11-27.88,38.71-18.1,57.75s92,44.26,85.58-1.6-7.59-55.09-24.05-57.72S346.34,274.79,338,281.48Z"
              transform="translate(-139.56 -25.95)" style="fill:#dcdbdb"/>
        <path d="M247.07,422.71c-37.25,12-98.21-41.08-98.25,27.43s16.82,40.23,51.33,47.93c61.32,0,229.94,8.72,229.94-52s-93.78,7.46-108.59-1.76S289.42,409,247.07,422.71Z"
              transform="translate(-139.56 -25.95)" style="fill:#dcdbdb"/>
        <path d="M341.13,397.73c5.51,19.89,16.08,30.63,42.61,21.7s7.25-51.3-9.74-52.18S333,368.26,341.13,397.73Z"
              transform="translate(-139.56 -25.95)" style="fill:#dcdbdb"/>
        <path d="M147.86,66.57c.87,5.24,13.56,17.68,34.49,32.45,35.67,25.2,93.49,53.6,144.45,38.7,80.84-23.63,95.13-2.36,102.29-53.18s-80.9-56.68-128.53-55.47-154.7,8.66-152.7,37.5"
              transform="translate(-139.56 -25.95)" style="fill:#dcdbdb"/>
        <path d="M162.53,240.54c-10.91-16-24.11-22.22-9.14-32.78s29.67-25.06,51.06-35.93,59.05-30.92,91.7-20.89c11.08,4,16.59,11.41,20.09,17.83a47.49,47.49,0,0,1,5.53,20.41c1.61,31.86,31.26,85,4.66,88.55C297,281.67,228.09,336.83,162.53,240.54Z"
              transform="translate(-139.56 -25.95)" style="fill:#dcdbdb"/>
    </g>
</svg>