<svg class="carElm" xmlns="http://www.w3.org/2000/svg" viewBox="0 0 613.52 179.35" onclick="speedUp()">
    <title>change speed</title>
    <g data-name="karoseri" fill="#fff" stroke="#004FA2" stroke-miterlimit="15" stroke-width="0.5%">
        <path d="M.51 138.17c4.83-73.51 5-85 20.5-84.76 127.5 2.26 214.5-117.24 390.5-4.24 67 15 197-6.5 201.5 84.5.57 11.64-35.5 7.07-63.75 7.5-.75-53-85.75-57.5-85.75 2.5-53.25 0-202.5-1.25-225.5 0s-31 1.25-94.5 0c-1.5-57-83.5-57-83.5.56-18 2.25-39.66.36-43.64-.05-9.01-.93-16.25-.09-15.86-6.01z"
        />
        <path d="M103.51 51.42c15.72.21 76.06-.59 130.38-3 .62-33.63 0-4.1.62-37.74-37-.01-117.06 36.11-131 40.74zM400.79 50.37c-95.73-1.76-90.41-.59-158.41-2.33-.87-35 0-3.27-.87-38.25 26.76-2.46 62.56-10.87 159.28 40.58z"
        />
    </g>
    <g id="bakre_hjul" data-name="Bak hjul" fill="#fff" stroke="#004FA2" stroke-width="0.5%" stroke-miterlimit="15"
       class="wheel1">
        <circle cx="101.51" cy="142.17" r="36.68"/>
        <circle cx="101.51" cy="142.17" r="30.86"/>
        <circle cx="91.39" cy="130.81" r="10.43"/>
        <circle cx="113.64" cy="140.81" r="10.43"/>
        <circle cx="94.39" cy="154.38" r="10.43"/>
        <animateTransform id="animRW" class="transformation" attributeName="transform" attributeType="XML" type="rotate"
                          from="0 101 142"
                          to="360 101 142" dur="5s" repeatCount="indefinite">
        </animateTransform>
    </g>
</svg>
