<svg xmlns="http://www.w3.org/2000/svg" viewBox="0 0 298.05 477.12">
    <title>Stones</title>
    <g id="f900baf8-f645-41df-93e4-06d87bc87939" data-name="Back copy">
        <path d="M156.33,242.33c-11.53-16.94-25.5-23.5-9.66-34.66s31.37-26.51,54-38,62.44-32.7,97-22.1c11.72,4.21,17.55,12.07,21.25,18.86A50.15,50.15,0,0,1,324.74,188c1.7,33.7,33.06,89.9,4.93,93.66C298.5,285.83,225.67,344.17,156.33,242.33Z"
              transform="translate(-139.56 -25.95)" style="fill:#c2c1c0"/>
        <path d="M371.38,144.69c23.38-28.25,65.8-28,65.8,16.64s-13,120.17-40.85,119-54.22-29.72-54.69-46.27S358.25,160.54,371.38,144.69Z"
              transform="translate(-139.56 -25.95)" style="fill:#c2c1c0"/>
        <path d="M259.32,301.57c-27.69,2.38-116.65,51.26-67.65,80.1S201.17,420.5,233,417c3.95-.43,22.88-5.08,43.67-5.18,32.43-.16,69.38,2.12,61-17.49C317.5,347.17,314.65,296.81,259.32,301.57Z"
              transform="translate(-139.56 -25.95)" style="fill:#c2c1c0"/>
        <path d="M336.63,279.29c-27.74,22.32-29.48,40.93-19.14,61.07s97.34,46.81,90.51-1.69-8-58.27-25.43-61.05S345.44,272.21,336.63,279.29Z"
              transform="translate(-139.56 -25.95)" style="fill:#c2c1c0"/>
        <path d="M243.62,416.77C204.22,430.46,139.76,370,139.71,448S157.5,493.81,194,502.57c64.85,0,243.18,9.93,243.18-59.24s-99.18,8.5-114.85-2S288.41,401.2,243.62,416.77Z"
              transform="translate(-139.56 -25.95)" style="fill:#c2c1c0"/>
        <path d="M338.87,398c5.83,21,17,32.39,45.06,22.94s7.67-54.25-10.3-55.18S330.24,366.83,338.87,398Z"
              transform="translate(-139.56 -25.95)" style="fill:#c2c1c0"/>
        <path d="M139.76,65.75c.92,5.55,14.34,18.69,36.47,34.32C214,126.71,275.11,156.76,329,141c85.5-25,100.61-2.5,108.18-56.25S351.63,24.81,301.25,26.09,137.64,35.25,139.76,65.75"
              transform="translate(-139.56 -25.95)" style="fill:#c2c1c0"/>
        <path d="M156.33,242.33c-11.53-16.94-25.5-23.5-9.66-34.66s31.37-26.51,54-38,62.44-32.7,97-22.1c11.72,4.21,17.55,12.07,21.25,18.86A50.15,50.15,0,0,1,324.74,188c1.7,33.7,33.06,89.9,4.93,93.66C298.5,285.83,225.67,344.17,156.33,242.33Z"
              transform="translate(-139.56 -25.95)" style="fill:#c2c1c0"/>
    </g>
    <g id="f211ac4f-c49e-42c8-92b4-032d51d165d2" data-name="Layer 3">
        <path d="M163.53,243.54c-10.91-16-24.11-22.22-9.14-32.78s29.67-25.06,51.06-35.93,59.05-30.92,91.7-20.89c11.08,4,16.59,11.41,20.09,17.83a47.49,47.49,0,0,1,5.53,20.41c1.61,31.86,31.26,85,4.66,88.55C298,284.67,229.09,339.83,163.53,243.54Z"
              transform="translate(-139.56 -25.95)" style="fill:#dcdbdb"/>
        <path d="M372.87,147.21C395,120.5,435.09,120.72,435.09,163s-12.3,113.62-38.62,112.52-51.27-28.1-51.72-43.76S360.46,162.2,372.87,147.21Z"
              transform="translate(-139.56 -25.95)" style="fill:#dcdbdb"/>
        <path d="M259.92,303.55c-26.19,2.26-110.31,48.47-64,75.74s9,36.72,39.09,33.41c3.73-.41,21.63-4.8,41.29-4.9,30.66-.15,65.6,2,57.67-16.53C314.93,346.67,312.23,299.05,259.92,303.55Z"
              transform="translate(-139.56 -25.95)" style="fill:#dcdbdb"/>
        <path d="M338,281.48c-26.24,21.11-27.88,38.71-18.1,57.75s92,44.26,85.58-1.6-7.59-55.09-24.05-57.72S346.34,274.79,338,281.48Z"
              transform="translate(-139.56 -25.95)" style="fill:#dcdbdb"/>
        <path d="M247.07,422.71c-37.25,12-98.21-41.08-98.25,27.43s16.82,40.23,51.33,47.93c61.32,0,229.94,8.72,229.94-52s-93.78,7.46-108.59-1.76S289.42,409,247.07,422.71Z"
              transform="translate(-139.56 -25.95)" style="fill:#dcdbdb"/>
        <path d="M341.13,397.73c5.51,19.89,16.08,30.63,42.61,21.7s7.25-51.3-9.74-52.18S333,368.26,341.13,397.73Z"
              transform="translate(-139.56 -25.95)" style="fill:#dcdbdb"/>
        <path d="M147.86,66.57c.87,5.24,13.56,17.68,34.49,32.45,35.67,25.2,93.49,53.6,144.45,38.7,80.84-23.63,95.13-2.36,102.29-53.18s-80.9-56.68-128.53-55.47-154.7,8.66-152.7,37.5"
              transform="translate(-139.56 -25.95)" style="fill:#dcdbdb"/>
        <path d="M162.53,240.54c-10.91-16-24.11-22.22-9.14-32.78s29.67-25.06,51.06-35.93,59.05-30.92,91.7-20.89c11.08,4,16.59,11.41,20.09,17.83a47.49,47.49,0,0,1,5.53,20.41c1.61,31.86,31.26,85,4.66,88.55C297,281.67,228.09,336.83,162.53,240.54Z"
              transform="translate(-139.56 -25.95)" style="fill:#dcdbdb"/>
    </g>
    <g id="f76bdfde-2635-411c-aff2-915083b6c665" data-name="Layer 4">
        <path d="M374.38,153c19.8-23.91,55.71-23.72,55.71,14.09s-11,101.73-34.58,100.74-45.9-25.16-46.3-39.18S363.27,166.39,374.38,153Z"
              transform="translate(-139.56 -25.95)" style="fill:#c2c1c0"/>
        <path d="M257.77,309.52c-23.29,2-98.12,43.12-56.9,67.37s8,32.66,34.76,29.72c3.33-.37,19.25-4.27,36.73-4.36,27.28-.14,58.36,1.79,51.31-14.71C306.71,347.87,304.31,305.51,257.77,309.52Z"
              transform="translate(-139.56 -25.95)" style="fill:#c2c1c0"/>
        <path d="M341.27,287c-22,17.7-23.37,32.45-15.17,48.42s77.17,37.11,71.76-1.34-6.37-46.2-20.17-48.4S348.25,281.33,341.27,287Z"
              transform="translate(-139.56 -25.95)" style="fill:#c2c1c0"/>
        <path d="M248.73,430.19c-35.06,9.9-92.44-33.83-92.48,22.59s15.83,33.13,48.32,39.47c57.72,0,216.43,7.18,216.43-42.85s-88.27,6.15-102.21-1.45S288.59,418.93,248.73,430.19Z"
              transform="translate(-139.56 -25.95)" style="fill:#c2c1c0"/>
        <path d="M345.87,396.94c4.43,16,12.92,24.63,34.27,17.45s5.82-41.26-7.84-42S339.31,373.24,345.87,396.94Z"
              transform="translate(-139.56 -25.95)" style="fill:#c2c1c0"/>
        <path d="M153.69,67c.84,5.06,13.09,17.07,33.3,31.34,34.45,24.33,90.29,51.76,139.5,37.37,78.07-22.83,91.87-2.28,98.78-51.36S347.15,29.63,301.15,30.8,151.76,39.17,153.69,67"
              transform="translate(-139.56 -25.95)" style="fill:#c2c1c0"/>
        <path d="M168.68,240.62c-10.15-14.9-22.42-20.66-8.5-30.48s27.58-23.31,47.47-33.41,54.9-28.75,85.26-19.43c10.31,3.7,15.44,10.62,18.69,16.58a44.1,44.1,0,0,1,5.14,19c1.5,29.63,29.07,79,4.33,82.34C293.67,278.86,229.63,330.15,168.68,240.62Z"
              transform="translate(-139.56 -25.95)" style="fill:#c2c1c0"/>
    </g>
</svg>